<?xml version="1.0" encoding="UTF-8"?>
<svg id="Layer_2" data-name="Layer 2" xmlns="http://www.w3.org/2000/svg" width="37.46" height="38.8" viewBox="0 0 37.46 38.8">
  <defs>
    <style>
      .cls-1 {
        fill: #fff;
        stroke-width: 0px;
      }
    </style>
  </defs>
  <path class="cls-1" d="M34.97,16.98c-.22-.16-.49-.2-.75-.11l-14.93,4.98c-.34.11-.57.43-.57.79v3.32c0,.36.23.67.57.79l14.93,4.98c.08.03.17.04.26.04.46,0,.83-.37.83-.83v-13.27c0-.27-.13-.52-.34-.67Z"/>
  <path class="cls-1" d="M27.02,17.24v14.1c0,1.83-1.48,3.31-3.31,3.31H5.47c-1.84,0-3.32-1.48-3.32-3.31v-14.1c0-1.36.83-2.54,2.01-3.04.94,1.59,2.67,2.66,4.65,2.66,2.09,0,3.9-1.19,4.8-2.93h.79c1.09,1.69,2.99,2.82,5.15,2.82s3.96-1.07,5.07-2.69c1.38.4,2.39,1.68,2.39,3.19Z"/>
  <path class="cls-1" d="M8.81,5.81c-2.75,0-4.98,2.23-4.98,4.98s2.23,4.98,4.98,4.98,4.98-2.23,4.98-4.98-2.23-4.98-4.98-4.98ZM8.81,13.28c-1.37,0-2.49-1.11-2.49-2.49s1.11-2.49,2.49-2.49,2.49,1.11,2.49,2.49-1.11,2.49-2.49,2.49Z"/>
  <path class="cls-1" d="M19.56,4.15c-3.21,0-5.8,2.6-5.8,5.8s2.6,5.8,5.8,5.8,5.8-2.6,5.8-5.8-2.6-5.8-5.8-5.8ZM19.56,13.28c-1.83,0-3.32-1.48-3.32-3.32s1.48-3.32,3.32-3.32,3.32,1.48,3.32,3.32-1.48,3.32-3.32,3.32Z"/>
</svg>