<?xml version="1.0" encoding="UTF-8"?>
<svg id="Layer_2" data-name="Layer 2" xmlns="http://www.w3.org/2000/svg" width="37.46" height="38.8" viewBox="0 0 37.46 38.8">
  <defs>
    <style>
      .cls-1 {
        fill: #fff;
        stroke-width: 0px;
      }
    </style>
  </defs>
  <path class="cls-1" d="M35.09,24.59c-1.19,0-2.13.95-2.13,2.13v2.9c0,1.36-1.13,2.49-2.49,2.49H6.93c-1.36,0-2.49-1.13-2.49-2.49v-2.79c0-1.19-.95-2.13-2.13-2.13s-2.13.95-2.13,2.13v2.79c0,3.73,3.02,6.82,6.82,6.82h23.48c3.73,0,6.82-3.02,6.82-6.82v-2.9c-.06-1.19-1.07-2.13-2.19-2.13Z"/>
  <path class="cls-1" d="M27.86,16.47c-.36-.77-1.01-1.13-1.96-1.13h-3.5c.06-.65.18-1.54.3-2.49.24-1.96.47-4.15.59-5.45.18-2.73-1.9-5.04-4.56-5.04-1.24,0-2.43.47-3.32,1.36-.95.95-1.48,2.25-1.36,3.68.12,1.3.41,3.79.65,5.81.12.83.18,1.6.24,2.19h-3.5c-1.13,0-1.66.59-1.9,1.13-.12.3-.18.59-.18.89,0,.41.18.89.47,1.3,2.25,3.2,4.56,6.05,7.05,8.6.53.59,1.19.89,1.84.89s1.3-.3,1.9-.89c2.43-2.49,4.74-5.34,7.05-8.6.41-.83.47-1.54.18-2.25Z"/>
</svg>