<?xml version="1.0" encoding="UTF-8"?>
<svg id="Layer_2" data-name="Layer 2" xmlns="http://www.w3.org/2000/svg" width="37.46" height="38.8" viewBox="0 0 37.46 38.8">
  <defs>
    <style>
      .cls-1 {
        fill: #fff;
        stroke-width: 0px;
      }
    </style>
  </defs>
  <g id="surface1">
    <path class="cls-1" d="M31.31,20.85c0-.64-.52-1.16-1.16-1.16s-1.16.52-1.16,1.16c0,5.66-4.6,10.27-10.27,10.27s-10.27-4.6-10.27-10.27c0-.64-.52-1.16-1.16-1.16s-1.16.52-1.16,1.16c0,6.55,5.03,11.94,11.42,12.53v3.12h-4.29c-.64,0-1.16.52-1.16,1.16s.52,1.16,1.16,1.16h10.9c.64,0,1.16-.52,1.16-1.16s-.52-1.16-1.16-1.16h-4.29v-3.12c6.4-.59,11.42-5.98,11.42-12.53Z"/>
    <path class="cls-1" d="M18.73,28.26c-4.09,0-7.41-3.32-7.41-7.41V7.41C11.32,3.32,14.64,0,18.73,0s7.41,3.32,7.41,7.41v13.44c0,4.09-3.32,7.41-7.41,7.41Z"/>
  </g>
</svg>