<?xml version="1.0" encoding="UTF-8"?>
<svg id="Layer_2" data-name="Layer 2" xmlns="http://www.w3.org/2000/svg" width="37.46" height="38.8" viewBox="0 0 37.46 38.8">
  <defs>
    <style>
      .cls-1 {
        fill: #77b091;
      }

      .cls-1, .cls-2 {
        stroke-width: 0px;
      }

      .cls-2 {
        fill: #fff;
      }
    </style>
  </defs>
  <g id="_01" data-name=" 01">
    <path class="cls-2" d="M18.73,38.13C8.39,38.13,0,29.75,0,19.4S8.39.67,18.73.67s18.73,8.39,18.73,18.73c-.01,10.34-8.39,18.72-18.73,18.73Z"/>
    <path class="cls-1" d="M18.73,9.62c-5.4,0-9.78,4.38-9.78,9.78s4.38,9.78,9.78,9.78,9.78-4.38,9.78-9.78-4.38-9.78-9.78-9.78ZM18.77,26.29c-3.81,0-6.89-3.09-6.89-6.89s3.09-6.89,6.89-6.89,6.89,3.09,6.89,6.89h0c0,3.81-3.09,6.89-6.89,6.89Z"/>
  </g>
</svg>