<?xml version="1.0" encoding="UTF-8"?>
<svg id="Layer_2" data-name="Layer 2" xmlns="http://www.w3.org/2000/svg" width="37.46" height="38.8" viewBox="0 0 37.46 38.8">
  <defs>
    <style>
      .cls-1 {
        fill: #fff;
        stroke-width: 0px;
      }

      .cls-2 {
        fill: none;
        stroke: #fff;
        stroke-linecap: round;
        stroke-linejoin: round;
        stroke-width: 4px;
      }
    </style>
  </defs>
  <path class="cls-1" d="M18.73,24.69l2.22,2.22-1.65-.55c-.34-.11-.57-.43-.57-.78v-.89Z"/>
  <path class="cls-1" d="M35.31,17.28v13.27s0,.07-.01.1l-8.28-8.28-2.61-2.6,2.61-.87,7.2-2.4c.25-.09.53-.04.75.11.21.16.34.41.34.67Z"/>
  <line class="cls-2" x1="2.57" y1="3.25" x2="34.89" y2="35.56"/>
  <path class="cls-1" d="M26.61,32.57c-.57,1.02-1.66,1.71-2.9,1.71H5.47c-1.84,0-3.32-1.48-3.32-3.31v-14.1c0-1.36.83-2.54,2.01-3.05.93,1.59,2.66,2.66,4.65,2.66.52,0,1.02-.07,1.5-.21l16.3,16.3Z"/>
  <path class="cls-1" d="M27.02,16.87v5.5l-2.61-2.6-3.54-3.54c1.55-.34,2.89-1.27,3.76-2.55,1.37.4,2.39,1.68,2.39,3.19Z"/>
  <path class="cls-1" d="M10.31,5.67l3.24,3.23c-.5-1.53-1.71-2.74-3.24-3.23ZM3.83,10.42c0,2.75,2.23,4.97,4.98,4.97.2,0,.39-.01.58-.04l-5.52-5.52c-.03.19-.04.39-.04.59Z"/>
  <path class="cls-1" d="M19.56,3.78c-3.05,0-5.56,2.35-5.79,5.35l6.24,6.24c2.99-.23,5.35-2.73,5.35-5.78,0-3.21-2.6-5.81-5.8-5.81ZM19.56,12.91c-1.83,0-3.32-1.49-3.32-3.32s1.49-3.32,3.32-3.32,3.31,1.49,3.31,3.32-1.48,3.32-3.31,3.32Z"/>
</svg>