<?xml version="1.0" encoding="UTF-8"?>
<svg id="Layer_2" data-name="Layer 2" xmlns="http://www.w3.org/2000/svg" width="37.46" height="38.8" viewBox="0 0 37.46 38.8">
  <defs>
    <style>
      .cls-1 {
        fill: #fff;
        stroke-width: 0px;
      }

      .cls-2 {
        fill: none;
        stroke: #fff;
        stroke-linecap: round;
        stroke-linejoin: round;
        stroke-width: 4px;
      }
    </style>
  </defs>
  <line class="cls-2" x1="2.57" y1="3.25" x2="34.89" y2="35.56"/>
  <g id="surface1">
    <path class="cls-1" d="M19.88,33.37v3.12h4.3c.64,0,1.16.52,1.16,1.16s-.52,1.15-1.16,1.15h-10.9c-.64,0-1.16-.51-1.16-1.15s.52-1.16,1.16-1.16h4.29v-3.12c-6.4-.58-11.42-5.97-11.42-12.52,0-.64.52-1.16,1.15-1.16s1.16.52,1.16,1.16c0,5.66,4.61,10.26,10.27,10.26,1.84,0,3.58-.49,5.07-1.35l1.69,1.69c-1.65,1.06-3.56,1.73-5.61,1.92Z"/>
    <path class="cls-1" d="M31.31,20.85c0,1.72-.35,3.35-.98,4.84l-1.8-1.79h0c.3-.97.46-1.99.46-3.05,0-.64.52-1.16,1.16-1.16s1.16.52,1.16,1.16Z"/>
    <path class="cls-1" d="M11.32,17.28l10.36,10.36c-.91.4-1.9.62-2.95.62-4.09,0-7.41-3.33-7.41-7.41v-3.57Z"/>
    <path class="cls-1" d="M26.14,7.41v13.44c0,.21-.01.41-.03.62L11.36,6.72C11.7,2.95,14.87,0,18.73,0,22.81,0,26.14,3.32,26.14,7.41Z"/>
  </g>
</svg>