<?xml version="1.0" encoding="UTF-8"?>
<svg id="Layer_2" data-name="Layer 2" xmlns="http://www.w3.org/2000/svg" width="333.92" height="333.92" xmlns:xlink="http://www.w3.org/1999/xlink" viewBox="0 0 333.92 333.92">
  <defs>
    <style>
      .cls-1 {
        fill: #dfdfdf;
      }

      .cls-1, .cls-2 {
        stroke-width: 0px;
      }

      .cls-3 {
        fill: none;
        stroke: #77b091;
        stroke-miterlimit: 10;
        stroke-width: 3px;
      }

      .cls-2 {
        fill: #9d9d9d;
      }

      .cls-4 {
        clip-path: url(#clippath);
      }
    </style>
    <clipPath id="clippath">
      <path class="cls-3" d="M332.42,166.96c0,46.29-19.02,88.15-49.66,118.18-2.69,2.64-5.48,5.19-8.35,7.64-1.14.98-2.3,1.94-3.47,2.89-.12.1-.24.19-.36.29-4.1,3.3-8.36,6.42-12.77,9.32-26.08,17.16-57.3,27.15-90.85,27.15s-64.77-9.98-90.85-27.15c-4.41-2.9-8.67-6.01-12.77-9.32-.12-.1-.24-.19-.36-.29-1.17-.94-2.33-1.91-3.47-2.89-2.87-2.45-5.66-5-8.35-7.64C20.52,255.11,1.5,213.26,1.5,166.96,1.5,75.58,75.58,1.5,166.96,1.5s165.46,74.08,165.46,165.46Z"/>
    </clipPath>
  </defs>
  <path class="cls-1" d="M332.42,166.96c0,46.29-19.02,88.15-49.66,118.18-2.69,2.64-5.48,5.19-8.35,7.64-1.14.98-2.3,1.94-3.47,2.89-.12.1-.24.19-.36.29-4.1,3.3-8.36,6.42-12.77,9.32-26.08,17.16-57.3,27.15-90.85,27.15s-64.77-9.98-90.85-27.15c-4.41-2.9-8.67-6.01-12.77-9.32-.12-.1-.24-.19-.36-.29-1.17-.94-2.33-1.91-3.47-2.89-2.87-2.45-5.66-5-8.35-7.64C20.52,255.11,1.5,213.26,1.5,166.96,1.5,75.58,75.58,1.5,166.96,1.5s165.46,74.08,165.46,165.46Z"/>
  <g>
    <g class="cls-4">
      <g>
        <path class="cls-2" d="M242.73,111.82c0,20.82-7.47,38.84-22.19,53.57-14.73,14.73-32.75,22.19-53.57,22.19h-.04c-20.79,0-38.8-7.47-53.53-22.19-14.73-14.73-22.19-32.75-22.19-53.57s7.46-38.84,22.19-53.56c14.72-14.72,32.73-22.19,53.53-22.19h.04c20.81,0,38.84,7.47,53.57,22.19,14.73,14.73,22.19,32.75,22.19,53.56Z"/>
        <path class="cls-2" d="M298.19,278.71c0,16.43-5.22,29.72-15.52,39.52-10.17,9.68-23.62,14.58-39.98,14.58H91.23c-16.36,0-29.81-4.9-39.97-14.58-10.3-9.8-15.52-23.1-15.52-39.52,0-6.32.21-12.57.63-18.58.42-6.14,1.28-12.83,2.55-19.88,1.28-7.11,2.92-13.83,4.88-19.98,2.04-6.36,4.8-12.63,8.22-18.64,3.55-6.24,7.71-11.67,12.38-16.14,4.9-4.68,10.88-8.44,17.8-11.18,6.9-2.73,14.54-4.11,22.72-4.11,3.21,0,6.32,1.31,12.31,5.22,3.75,2.45,8.07,5.23,12.84,8.28,4.12,2.63,9.7,5.09,16.59,7.31,6.06,1.96,12.21,3.06,18.29,3.24.67.02,1.34.04,2.01.04,6.75,0,13.57-1.11,20.3-3.28,6.9-2.22,12.48-4.69,16.6-7.31,4.82-3.08,9.14-5.86,12.83-8.27,6-3.91,9.1-5.22,12.31-5.22,8.17,0,15.82,1.38,22.72,4.11,6.92,2.74,12.9,6.51,17.8,11.18,4.68,4.47,8.84,9.91,12.39,16.14,3.42,6.01,6.18,12.28,8.22,18.64,1.97,6.15,3.61,12.87,4.89,19.99,1.26,7.06,2.12,13.75,2.54,19.87.42,5.99.63,12.24.64,18.58Z"/>
      </g>
    </g>
    <path class="cls-3" d="M332.42,166.96c0,46.29-19.02,88.15-49.66,118.18-2.69,2.64-5.48,5.19-8.35,7.64-1.14.98-2.3,1.94-3.47,2.89-.12.1-.24.19-.36.29-4.1,3.3-8.36,6.42-12.77,9.32-26.08,17.16-57.3,27.15-90.85,27.15s-64.77-9.98-90.85-27.15c-4.41-2.9-8.67-6.01-12.77-9.32-.12-.1-.24-.19-.36-.29-1.17-.94-2.33-1.91-3.47-2.89-2.87-2.45-5.66-5-8.35-7.64C20.52,255.11,1.5,213.26,1.5,166.96,1.5,75.58,75.58,1.5,166.96,1.5s165.46,74.08,165.46,165.46Z"/>
  </g>
</svg>