<?xml version="1.0" encoding="UTF-8"?>
<svg id="Layer_2" data-name="Layer 2" xmlns="http://www.w3.org/2000/svg" width="1806.69" height="902.07" viewBox="0 0 1806.69 902.07">
  <defs>
    <style>
      .cls-1 {
        fill: #666;
        stroke-width: 0px;
      }
    </style>
  </defs>
  <g>
    <g>
      <path class="cls-1" d="M2.79,132.04c-1.54,0-2.79-1.25-2.79-2.79V2.79C0,1.25,1.25,0,2.79,0h122.94c1.54,0,2.79,1.25,2.79,2.79s-1.25,2.79-2.79,2.79H5.59v123.66c0,1.54-1.25,2.79-2.79,2.79Z"/>
      <path class="cls-1" d="M1803.9,132.04c-1.54,0-2.79-1.25-2.79-2.79V5.59h-120.15c-1.54,0-2.79-1.25-2.79-2.79s1.25-2.79,2.79-2.79h122.94c1.54,0,2.79,1.25,2.79,2.79v126.45c0,1.54-1.25,2.79-2.79,2.79Z"/>
    </g>
    <g>
      <path class="cls-1" d="M125.73,902.07H2.79c-1.54,0-2.79-1.25-2.79-2.79v-126.45c0-1.54,1.25-2.79,2.79-2.79s2.79,1.25,2.79,2.79v123.66h120.15c1.54,0,2.79,1.25,2.79,2.79s-1.25,2.79-2.79,2.79Z"/>
      <path class="cls-1" d="M1803.9,902.07h-122.94c-1.54,0-2.79-1.25-2.79-2.79s1.25-2.79,2.79-2.79h120.15v-123.66c0-1.54,1.25-2.79,2.79-2.79s2.79,1.25,2.79,2.79v126.45c0,1.54-1.25,2.79-2.79,2.79Z"/>
    </g>
    <g>
      <path class="cls-1" d="M1803.9,596.09c-1.54,0-2.79-1.25-2.79-2.79v-284.52c0-1.54,1.25-2.79,2.79-2.79s2.79,1.25,2.79,2.79v284.52c0,1.54-1.25,2.79-2.79,2.79Z"/>
      <path class="cls-1" d="M3.93,596.09c-1.54,0-2.79-1.25-2.79-2.79v-284.52c0-1.54,1.25-2.79,2.79-2.79s2.79,1.25,2.79,2.79v284.52c0,1.54-1.25,2.79-2.79,2.79Z"/>
    </g>
  </g>
  <g>
    <path class="cls-1" d="M1695.34,24.2h14.61c1.69,0,3.32.18,4.91.53,1.58.35,2.98.92,4.19,1.71,1.21.79,2.18,1.85,2.9,3.16.72,1.32,1.08,2.93,1.08,4.83,0,2.21-.55,4.05-1.66,5.51s-2.68,2.54-4.72,3.24v.11c.6.21,1.12.47,1.58.79s.86.73,1.21,1.24.69,1.15,1,1.92c.32.78.63,1.78.95,3.01.6,1.9,1.18,3.81,1.74,5.72.56,1.92,1.14,3.88,1.74,5.88h-8.28c-.18-.67-.38-1.45-.61-2.35s-.46-1.8-.69-2.72c-.23-.91-.45-1.78-.66-2.61-.21-.82-.4-1.55-.58-2.19-.28-1.02-.58-1.87-.9-2.56s-.73-1.23-1.24-1.63c-.51-.4-1.19-.69-2.03-.87-.84-.18-1.93-.26-3.27-.26h-3.59v15.19h-7.7V24.2ZM1703.04,40.5h5.06c1.05,0,2.02-.08,2.9-.24s1.64-.43,2.29-.82c.65-.39,1.15-.91,1.5-1.56.35-.65.53-1.47.53-2.45s-.19-1.86-.58-2.53c-.39-.67-.91-1.19-1.56-1.56-.65-.37-1.41-.62-2.27-.76-.86-.14-1.73-.21-2.61-.21h-5.27v10.13Z"/>
    <path class="cls-1" d="M1729.78,24.2h22.68v6.17h-14.98v9.18h13.77v6.17h-13.77v9.97h15.45v6.17h-23.15V24.2Z"/>
    <path class="cls-1" d="M1783.63,31.06c-1.02-.39-2.11-.7-3.27-.95s-2.32-.37-3.48-.37c-2,0-3.77.36-5.3,1.08-1.53.72-2.79,1.69-3.77,2.9-.99,1.21-1.73,2.64-2.24,4.27s-.76,3.37-.76,5.2c0,1.72.25,3.38.76,4.96.51,1.58,1.27,2.98,2.27,4.19,1,1.21,2.26,2.18,3.77,2.9s3.25,1.08,5.22,1.08c1.41,0,2.69-.12,3.85-.37s2.25-.6,3.27-1.05l1.32,5.96c-1.34.56-2.8.97-4.4,1.24-1.6.26-3.24.4-4.93.4-2.85,0-5.43-.47-7.75-1.42s-4.31-2.29-5.96-4.01c-1.65-1.72-2.92-3.76-3.8-6.12s-1.32-4.96-1.32-7.81.43-5.47,1.29-7.86c.86-2.39,2.11-4.46,3.75-6.2,1.63-1.74,3.65-3.09,6.04-4.06,2.39-.97,5.06-1.45,8.02-1.45,1.69,0,3.28.12,4.77.37,1.49.25,2.86.62,4.09,1.11l-1.42,6.01Z"/>
  </g>
</svg>